# xmcd
#
# Track frame offsets:
#	150
#	6829
#	21100
#	34424
#	46976
#	63768
#	70850
#	84815
#	99050
#	118090
#	129659
#	140343
#
# Disc length: 1978 seconds
#
# Revision: 0
# Processed by: cddbd v1.5.2PL0 Copyright (c) Steve Scherf et al.
# Submitted via: FairStars CD Ripper 1.01
#
DISCID=9307b80c
DTITLE=Various Artist - Some People Play Guitar...
DYEAR=2009
DGENRE=Blues
TTITLE0=Stefan Grossman - Tell Me Baby
TTITLE1=Woody Mann - Good Gal
TTITLE2=Woody Mann - Old Devil
TTITLE3=Woody Mann - Crosstown Blues
TTITLE4=Roy Book Binder - Bad Luck Blues
TTITLE5=Larry Sandberg - Delta Swing
TTITLE6=Roy Book Binder - I Got Mine
TTITLE7=Roy Book Binder - Bye Bye Baby Blues
TTITLE8=Rev. Gary Davis - Swingin' Blues
TTITLE9=Rev. Gary Davis - Darktown Strutters Ball
TTITLE10=Woody Mann - Who's Been Here
TTITLE11=Stefan Grossman - Good Morning Little Schoolgirl
EXTD=
EXTT0=
EXTT1=
EXTT2=
EXTT3=
EXTT4=
EXTT5=
EXTT6=
EXTT7=
EXTT8=
EXTT9=
EXTT10=
EXTT11=
PLAYORDER=
